{"title":"The Sitter 2011 UNRATED DvDRip.XviD.Ac3.Feel-Free","uid":7074758,"size":1237638721,"categoryP":"video","categoryS":"movies","magnet":"?xt=urn:btih:01c3371edadbaa896e9c34c82b8de1b0c6f485f0&amp;dn=The+Sitter+2011+UNRATED+DvDRip.XviD.Ac3.Feel-Free&amp;tr=udp%3A%2F%2Ftracker.openbittorrent.com%3A80&amp;tr=udp%3A%2F%2Fopen.demonii.com%3A1337&amp;tr=udp%3A%2F%2Ftracker.coppersurfer.tk%3A6969&amp;tr=udp%3A%2F%2Fexodus.desync.com%3A6969","seeders":0,"leechers":0,"uploader":"GhostRec0n","files":9,"time":1330796730,"description":"Genre:Comedy\nLanguage:English\nIMDb:http://www.imdb.com/title/tt1366344/\nSource:DVD Thanks!\nEncoder:Tony\n\nFormat : AVI\nFormat/Info : Audio Video Interleave\nFile size : 1.15 GiB\nDuration : 1h 20mn\nOverall bit rate : 2 038 Kbps\n\nVideo\nID : 0\nFormat : MPEG-4 Visual\nFormat profile : Advanced Simple@L5\nFormat settings, BVOP : 1\nFormat settings, QPel : No\nFormat settings, GMC : No warppoints\nFormat settings, Matrix : Default (H.263)\nCodec ID : XVID\nCodec ID/Hint : XviD\nDuration : 1h 20mn\nBit rate : 1 581 Kbps\nWidth : 640 pixels\nHeight : 328 pixels\nDisplay aspect ratio : 1.951\nFrame rate : 23.976 fps\nColor space : YUV\nChroma subsampling : 4:2:0\nBit depth : 8 bits\nScan type : Progressive\nCompression mode : Lossy\nBits/(Pixel*Frame) : 0.314\nStream size : 915 MiB (78%)\nWriting library : XviD 1.2.1 (UTC 2008-12-04)\n\nAudio\nID : 1\nFormat : AC-3\nFormat/Info : Audio Coding 3\nMode extension : CM (complete main)\nCodec ID : 2000\nDuration : 1h 20mn\nBit rate mode : Constant\nBit rate : 448 Kbps\nChannel(s) : 6 channels\nChannel positions : Front: L C R, Side: L R, LFE\nSampling rate : 48.0 KHz\nBit depth : 16 bits\nCompression mode : Lossy\nStream size : 259 MiB (22%)\nAlignment : Aligned on interleaves\nInterleave, duration : 42 ms (1.00 video frame)\nInterleave, preload duration : 512 ms\n\n\nPlot:\nA comedy about a college student on suspension who is coaxed into babysitting the kids next door, though he is fully unprepared for the wild night ahead of him.\n","torrent":{"xt":"urn:btih:01c3371edadbaa896e9c34c82b8de1b0c6f485f0","amp;dn":"The+Sitter+2011+UNRATED+DvDRip.XviD.Ac3.Feel-Free","amp;tr":["udp%3A%2F%2Ftracker.openbittorrent.com%3A80","udp%3A%2F%2Fopen.demonii.com%3A1337","udp%3A%2F%2Ftracker.coppersurfer.tk%3A6969","udp%3A%2F%2Fexodus.desync.com%3A6969"],"infoHash":"01c3371edadbaa896e9c34c82b8de1b0c6f485f0","infoHashBuffer":{"type":"Buffer","data":[1,195,55,30,218,219,170,137,110,156,52,200,43,141,225,176,198,244,133,240]},"announce":[],"urlList":[]}}